# Wavefront OBJ file automatically generated by Tiled2Unity

# Vertices (Count = 121)
v 0 -4 0
v -2 -4 0
v -2 -2 0
v 0 -2 0
v -4 -4 0
v -4 -2 0
v -6 -4 0
v -6 -2 0
v -8 -4 0
v -8 -2 0
v -10 -4 0
v -10 -2 0
v -12 -4 0
v -12 -2 0
v -14 -4 0
v -14 -2 0
v -16 -4 0
v -16 -2 0
v -18 -4 0
v -18 -2 0
v -20 -4 0
v -20 -2 0
v 0 -6 0
v -2 -6 0
v -4 -6 0
v -6 -6 0
v -8 -6 0
v -10 -6 0
v -12 -6 0
v -14 -6 0
v -16 -6 0
v -18 -6 0
v -20 -6 0
v 0 -8 0
v -2 -8 0
v -4 -8 0
v -6 -8 0
v -8 -8 0
v -10 -8 0
v -12 -8 0
v -14 -8 0
v -16 -8 0
v -18 -8 0
v -20 -8 0
v 0 -10 0
v -2 -10 0
v -4 -10 0
v -6 -10 0
v -8 -10 0
v -10 -10 0
v -12 -10 0
v -14 -10 0
v -16 -10 0
v -18 -10 0
v -20 -10 0
v 0 -12 0
v -2 -12 0
v -4 -12 0
v -6 -12 0
v -8 -12 0
v -10 -12 0
v -12 -12 0
v -14 -12 0
v -16 -12 0
v -18 -12 0
v -20 -12 0
v 0 -14 0
v -2 -14 0
v -4 -14 0
v -6 -14 0
v -8 -14 0
v -10 -14 0
v -12 -14 0
v -14 -14 0
v -16 -14 0
v -18 -14 0
v -20 -14 0
v 0 -16 0
v -2 -16 0
v -4 -16 0
v -6 -16 0
v -8 -16 0
v -10 -16 0
v -12 -16 0
v -14 -16 0
v -16 -16 0
v -18 -16 0
v -20 -16 0
v 0 -18 0
v -2 -18 0
v -4 -18 0
v -6 -18 0
v -8 -18 0
v -10 -18 0
v -12 -18 0
v -14 -18 0
v -16 -18 0
v -18 -18 0
v -20 -18 0
v 0 -20 0
v -2 -20 0
v -4 -20 0
v -6 -20 0
v -8 -20 0
v -10 -20 0
v -12 -20 0
v -14 -20 0
v -16 -20 0
v -18 -20 0
v -20 -20 0
v -2 0 0
v 0 0 0
v -4 0 0
v -6 0 0
v -8 0 0
v -10 0 0
v -12 0 0
v -14 0 0
v -16 0 0
v -18 0 0
v -20 0 0

# Texture cooridinates (Count = 220)
vt 0.4216097 0.2909966
vt 0.4378945 0.2909966
vt 0.4378945 0.3211707
vt 0.4216097 0.3211707
vt 0.4391717 0.2909966
vt 0.4554564 0.2909966
vt 0.4554564 0.3211707
vt 0.4391717 0.3211707
vt 0.4567336 0.2909966
vt 0.4730184 0.2909966
vt 0.4730184 0.3211707
vt 0.4567336 0.3211707
vt 0.4216097 0.2586772
vt 0.4378945 0.2586772
vt 0.4378945 0.2888513
vt 0.4216097 0.2888513
vt 0.4391717 0.2586772
vt 0.4554564 0.2586772
vt 0.4554564 0.2888513
vt 0.4391717 0.2888513
vt 0.4567336 0.2586772
vt 0.4730184 0.2586772
vt 0.4730184 0.2888513
vt 0.4567336 0.2888513
vt 0.4216097 0.2263578
vt 0.4378945 0.2263578
vt 0.4378945 0.2565319
vt 0.4216097 0.2565319
vt 0.4391717 0.2263578
vt 0.4554564 0.2263578
vt 0.4554564 0.2565319
vt 0.4391717 0.2565319
vt 0.4567336 0.2263578
vt 0.4730184 0.2263578
vt 0.4730184 0.2565319
vt 0.4567336 0.2565319
vt 0.8557019 0.9476631
vt 0.8904687 0.9476631
vt 0.8904687 0.9998779
vt 0.8557019 0.9998779
vt 0.8929011 0.8361877
vt 0.9276679 0.8361877
vt 0.9276679 0.8884025
vt 0.8929011 0.8884025
vt 0.9301002 0.7804499
vt 0.964867 0.7804499
vt 0.964867 0.8326648
vt 0.9301002 0.8326648
vt 0.5581089 0.1115975
vt 0.5928757 0.1115975
vt 0.5928757 0.1638123
vt 0.5581089 0.1638123
vt 0.7813037 0.390286
vt 0.8160705 0.390286
vt 0.8160705 0.4425009
vt 0.7813037 0.4425009
vt 0.5209098 0.1115975
vt 0.5556766 0.1115975
vt 0.5556766 0.1638123
vt 0.5209098 0.1638123
vt 0.4093125 0.1115975
vt 0.4440793 0.1115975
vt 0.4440793 0.1638123
vt 0.4093125 0.1638123
vt 0.8557019 0.5017614
vt 0.8904687 0.5017614
vt 0.8904687 0.5539763
vt 0.8557019 0.5539763
vt 0.8929011 0.5017614
vt 0.9276679 0.5017614
vt 0.9276679 0.5539763
vt 0.8929011 0.5539763
vt 0.07452032 0.0001220703
vt 0.1092871 0.0001220703
vt 0.1092871 0.05233693
vt 0.07452032 0.05233693
vt 0.7441046 0.0001220703
vt 0.7788714 0.0001220703
vt 0.7788714 0.05233693
vt 0.7441046 0.05233693
vt 0.1861177 0.2788106
vt 0.2208845 0.2788106
vt 0.2208845 0.3310255
vt 0.1861177 0.3310255
vt 0.2233168 0.2788106
vt 0.2580836 0.2788106
vt 0.2580836 0.3310255
vt 0.2233168 0.3310255
vt 0.7813037 0.3345483
vt 0.8160705 0.3345483
vt 0.8160705 0.3867632
vt 0.7813037 0.3867632
vt 0.7813037 0.8361877
vt 0.8160705 0.8361877
vt 0.8160705 0.8884025
vt 0.7813037 0.8884025
vt 0.3721133 0.7247123
vt 0.4068801 0.7247123
vt 0.4068801 0.7769271
vt 0.3721133 0.7769271
vt 0.4093125 0.7247123
vt 0.4440793 0.7247123
vt 0.4440793 0.7769271
vt 0.4093125 0.7769271
vt 0.7813037 0.6132368
vt 0.8160705 0.6132368
vt 0.8160705 0.6654517
vt 0.7813037 0.6654517
vt 0.0001220703 0.8361877
vt 0.03488887 0.8361877
vt 0.03488887 0.8884025
vt 0.0001220703 0.8884025
vt 0.5581089 0.9476631
vt 0.5928757 0.9476631
vt 0.5928757 0.9998779
vt 0.5581089 0.9998779
vt 0.5209098 0.8361877
vt 0.5556766 0.8361877
vt 0.5556766 0.8884025
vt 0.5209098 0.8884025
vt 0.07452032 0.8361877
vt 0.1092871 0.8361877
vt 0.1092871 0.8884025
vt 0.07452032 0.8884025
vt 0.5953081 0.390286
vt 0.6300749 0.390286
vt 0.6300749 0.4425009
vt 0.5953081 0.4425009
vt 0.6697063 0.390286
vt 0.7044731 0.390286
vt 0.7044731 0.4425009
vt 0.6697063 0.4425009
vt 0.1117194 0.8361877
vt 0.1464862 0.8361877
vt 0.1464862 0.8884025
vt 0.1117194 0.8884025
vt 0.5581089 0.8919253
vt 0.5928757 0.8919253
vt 0.5928757 0.9441402
vt 0.5581089 0.9441402
vt 0.5209098 0.7804499
vt 0.5556766 0.7804499
vt 0.5556766 0.8326648
vt 0.5209098 0.8326648
vt 0.8557019 0.1115975
vt 0.8904687 0.1115975
vt 0.8904687 0.1638123
vt 0.8557019 0.1638123
vt 0.0373212 0.8361877
vt 0.072088 0.8361877
vt 0.072088 0.8884025
vt 0.0373212 0.8884025
vt 0.4837107 0.4460237
vt 0.5184775 0.4460237
vt 0.5184775 0.4982386
vt 0.4837107 0.4982386
vt 0.8557019 0.0558598
vt 0.8904687 0.0558598
vt 0.8904687 0.1080747
vt 0.8557019 0.1080747
vt 0.7813037 0.7247123
vt 0.8160705 0.7247123
vt 0.8160705 0.7769271
vt 0.7813037 0.7769271
vt 0.4465116 0.390286
vt 0.4812784 0.390286
vt 0.4812784 0.4425009
vt 0.4465116 0.4425009
vt 0.8557019 0.0001220703
vt 0.8904687 0.0001220703
vt 0.8904687 0.05233693
vt 0.8557019 0.05233693
vt 0.5953081 0.9476631
vt 0.6300749 0.9476631
vt 0.6300749 0.9998779
vt 0.5953081 0.9998779
vt 0.1489186 0.6689745
vt 0.1836854 0.6689745
vt 0.1836854 0.7211894
vt 0.1489186 0.7211894
vt 0.3349142 0.0001220703
vt 0.369681 0.0001220703
vt 0.369681 0.05233693
vt 0.3349142 0.05233693
vt 0.3721133 0.0001220703
vt 0.4068801 0.0001220703
vt 0.4068801 0.05233693
vt 0.3721133 0.05233693
vt 0.4093125 0.0001220703
vt 0.4440793 0.0001220703
vt 0.4440793 0.05233693
vt 0.4093125 0.05233693
vt 0.7441046 0.1673352
vt 0.7788714 0.1673352
vt 0.7788714 0.2195501
vt 0.7441046 0.2195501
vt 0.7813037 0.1673352
vt 0.8160705 0.1673352
vt 0.8160705 0.2195501
vt 0.7813037 0.2195501
vt 0.8185028 0.390286
vt 0.8532696 0.390286
vt 0.8532696 0.4425009
vt 0.8185028 0.4425009
vt 0.5953081 0.0558598
vt 0.6300749 0.0558598
vt 0.6300749 0.1080747
vt 0.5953081 0.1080747
vt 0.6325072 0.0558598
vt 0.667274 0.0558598
vt 0.667274 0.1080747
vt 0.6325072 0.1080747
vt 0.6697063 0.0558598
vt 0.7044731 0.0558598
vt 0.7044731 0.1080747
vt 0.6697063 0.1080747
vt 0.6697063 0.2230729
vt 0.7044731 0.2230729
vt 0.7044731 0.2752877
vt 0.6697063 0.2752877

# Normal
vn 0 0 -1

# Groups (Count = 4)

g mesh_0001
f 1/1/1 2/2/1 3/3/1 4/4/1
f 2/5/1 5/6/1 6/7/1 3/8/1
f 5/5/1 7/6/1 8/7/1 6/8/1
f 7/5/1 9/6/1 10/7/1 8/8/1
f 9/5/1 11/6/1 12/7/1 10/8/1
f 11/5/1 13/6/1 14/7/1 12/8/1
f 13/5/1 15/6/1 16/7/1 14/8/1
f 15/5/1 17/6/1 18/7/1 16/8/1
f 17/5/1 19/6/1 20/7/1 18/8/1
f 19/9/1 21/10/1 22/11/1 20/12/1
f 23/13/1 24/14/1 2/15/1 1/16/1
f 24/17/1 25/18/1 5/19/1 2/20/1
f 25/17/1 26/18/1 7/19/1 5/20/1
f 26/17/1 27/18/1 9/19/1 7/20/1
f 27/17/1 28/18/1 11/19/1 9/20/1
f 28/17/1 29/18/1 13/19/1 11/20/1
f 29/17/1 30/18/1 15/19/1 13/20/1
f 30/17/1 31/18/1 17/19/1 15/20/1
f 31/17/1 32/18/1 19/19/1 17/20/1
f 32/21/1 33/22/1 21/23/1 19/24/1
f 34/13/1 35/14/1 24/15/1 23/16/1
f 35/17/1 36/18/1 25/19/1 24/20/1
f 36/17/1 37/18/1 26/19/1 25/20/1
f 37/17/1 38/18/1 27/19/1 26/20/1
f 38/17/1 39/18/1 28/19/1 27/20/1
f 39/17/1 40/18/1 29/19/1 28/20/1
f 40/17/1 41/18/1 30/19/1 29/20/1
f 41/17/1 42/18/1 31/19/1 30/20/1
f 42/17/1 43/18/1 32/19/1 31/20/1
f 43/21/1 44/22/1 33/23/1 32/24/1
f 45/13/1 46/14/1 35/15/1 34/16/1
f 46/17/1 47/18/1 36/19/1 35/20/1
f 47/17/1 48/18/1 37/19/1 36/20/1
f 48/17/1 49/18/1 38/19/1 37/20/1
f 49/17/1 50/18/1 39/19/1 38/20/1
f 50/17/1 51/18/1 40/19/1 39/20/1
f 51/17/1 52/18/1 41/19/1 40/20/1
f 52/17/1 53/18/1 42/19/1 41/20/1
f 53/17/1 54/18/1 43/19/1 42/20/1
f 54/21/1 55/22/1 44/23/1 43/24/1
f 56/13/1 57/14/1 46/15/1 45/16/1
f 57/17/1 58/18/1 47/19/1 46/20/1
f 58/17/1 59/18/1 48/19/1 47/20/1
f 59/17/1 60/18/1 49/19/1 48/20/1
f 60/17/1 61/18/1 50/19/1 49/20/1
f 61/17/1 62/18/1 51/19/1 50/20/1
f 62/17/1 63/18/1 52/19/1 51/20/1
f 63/17/1 64/18/1 53/19/1 52/20/1
f 64/17/1 65/18/1 54/19/1 53/20/1
f 65/21/1 66/22/1 55/23/1 54/24/1
f 67/13/1 68/14/1 57/15/1 56/16/1
f 68/17/1 69/18/1 58/19/1 57/20/1
f 69/17/1 70/18/1 59/19/1 58/20/1
f 70/17/1 71/18/1 60/19/1 59/20/1
f 71/17/1 72/18/1 61/19/1 60/20/1
f 72/17/1 73/18/1 62/19/1 61/20/1
f 73/17/1 74/18/1 63/19/1 62/20/1
f 74/17/1 75/18/1 64/19/1 63/20/1
f 75/17/1 76/18/1 65/19/1 64/20/1
f 76/21/1 77/22/1 66/23/1 65/24/1
f 78/13/1 79/14/1 68/15/1 67/16/1
f 79/17/1 80/18/1 69/19/1 68/20/1
f 80/17/1 81/18/1 70/19/1 69/20/1
f 81/17/1 82/18/1 71/19/1 70/20/1
f 82/17/1 83/18/1 72/19/1 71/20/1
f 83/17/1 84/18/1 73/19/1 72/20/1
f 84/17/1 85/18/1 74/19/1 73/20/1
f 85/17/1 86/18/1 75/19/1 74/20/1
f 86/17/1 87/18/1 76/19/1 75/20/1
f 87/21/1 88/22/1 77/23/1 76/24/1
f 89/13/1 90/14/1 79/15/1 78/16/1
f 90/17/1 91/18/1 80/19/1 79/20/1
f 91/17/1 92/18/1 81/19/1 80/20/1
f 92/17/1 93/18/1 82/19/1 81/20/1
f 93/17/1 94/18/1 83/19/1 82/20/1
f 94/17/1 95/18/1 84/19/1 83/20/1
f 95/17/1 96/18/1 85/19/1 84/20/1
f 96/17/1 97/18/1 86/19/1 85/20/1
f 97/17/1 98/18/1 87/19/1 86/20/1
f 98/21/1 99/22/1 88/23/1 87/24/1
f 100/25/1 101/26/1 90/27/1 89/28/1
f 101/29/1 102/30/1 91/31/1 90/32/1
f 102/29/1 103/30/1 92/31/1 91/32/1
f 103/29/1 104/30/1 93/31/1 92/32/1
f 104/29/1 105/30/1 94/31/1 93/32/1
f 105/29/1 106/30/1 95/31/1 94/32/1
f 106/29/1 107/30/1 96/31/1 95/32/1
f 107/29/1 108/30/1 97/31/1 96/32/1
f 108/29/1 109/30/1 98/31/1 97/32/1
f 109/33/1 110/34/1 99/35/1 98/36/1

g mesh_0002
f 4/37/1 3/38/1 111/39/1 112/40/1
f 3/41/1 6/42/1 113/43/1 111/44/1
f 6/41/1 8/42/1 114/43/1 113/44/1
f 8/41/1 10/42/1 115/43/1 114/44/1
f 10/41/1 12/42/1 116/43/1 115/44/1
f 12/41/1 14/42/1 117/43/1 116/44/1
f 14/41/1 16/42/1 118/43/1 117/44/1
f 16/41/1 18/42/1 119/43/1 118/44/1
f 18/41/1 20/42/1 120/43/1 119/44/1
f 20/45/1 22/46/1 121/47/1 120/48/1

g mesh_0003
f 4/49/1 3/50/1 111/51/1 112/52/1
f 18/53/1 20/54/1 120/55/1 119/56/1
f 1/57/1 2/58/1 3/59/1 4/60/1
f 2/61/1 5/62/1 6/63/1 3/64/1
f 5/65/1 7/66/1 8/67/1 6/68/1
f 7/69/1 9/70/1 10/71/1 8/72/1
f 9/73/1 11/74/1 12/75/1 10/76/1
f 11/77/1 13/78/1 14/79/1 12/80/1
f 13/81/1 15/82/1 16/83/1 14/84/1
f 15/85/1 17/86/1 18/87/1 16/88/1
f 17/89/1 19/90/1 20/91/1 18/92/1
f 19/73/1 21/74/1 22/75/1 20/76/1
f 23/93/1 24/94/1 2/95/1 1/96/1
f 25/97/1 26/98/1 7/99/1 5/100/1
f 26/101/1 27/102/1 9/103/1 7/104/1
f 32/105/1 33/106/1 21/107/1 19/108/1
f 36/109/1 37/110/1 26/111/1 25/112/1
f 37/109/1 38/110/1 27/111/1 26/112/1
f 42/113/1 43/114/1 32/115/1 31/116/1
f 43/117/1 44/118/1 33/119/1 32/120/1
f 46/121/1 47/122/1 36/123/1 35/124/1
f 47/125/1 48/126/1 37/127/1 36/128/1
f 48/129/1 49/130/1 38/131/1 37/132/1
f 49/133/1 50/134/1 39/135/1 38/136/1
f 53/137/1 54/138/1 43/139/1 42/140/1
f 54/141/1 55/142/1 44/143/1 43/144/1
f 56/145/1 57/146/1 46/147/1 45/148/1
f 58/149/1 59/150/1 48/151/1 47/152/1
f 59/149/1 60/150/1 49/151/1 48/152/1
f 61/153/1 62/154/1 51/155/1 50/156/1
f 67/157/1 68/158/1 57/159/1 56/160/1
f 68/161/1 69/162/1 58/163/1 57/164/1
f 72/165/1 73/166/1 62/167/1 61/168/1
f 78/169/1 79/170/1 68/171/1 67/172/1
f 83/165/1 84/166/1 73/167/1 72/168/1
f 94/165/1 95/166/1 84/167/1 83/168/1
f 98/173/1 99/174/1 88/175/1 87/176/1
f 101/177/1 102/178/1 91/179/1 90/180/1
f 102/177/1 103/178/1 92/179/1 91/180/1
f 103/177/1 104/178/1 93/179/1 92/180/1
f 105/165/1 106/166/1 95/167/1 94/168/1
f 106/181/1 107/182/1 96/183/1 95/184/1
f 107/185/1 108/186/1 97/187/1 96/188/1
f 108/189/1 109/190/1 98/191/1 97/192/1

g mesh_0004
f 3/193/1 6/194/1 113/195/1 111/196/1
f 6/197/1 8/198/1 114/199/1 113/200/1
f 10/201/1 12/202/1 116/203/1 115/204/1
f 12/205/1 14/206/1 117/207/1 116/208/1
f 14/209/1 16/210/1 118/211/1 117/212/1
f 16/213/1 18/214/1 119/215/1 118/216/1
f 20/217/1 22/218/1 121/219/1 120/220/1
f 65/105/1 66/106/1 55/107/1 54/108/1

